<svg width="14" height="14" viewBox="0 0 14 14" fill="none" xmlns="http://www.w3.org/2000/svg">
<path d="M10.5897 0H3.41026C1.52995 0 0 1.61265 0 3.59459V13.4324C0 13.6617 0.131394 13.8691 0.332419 13.9569C0.399189 13.9864 0.468821 14 0.538462 14C0.678462 14 0.816307 13.9425 0.918974 13.8335L2.6521 12.0067C2.82154 11.8281 3.04698 11.7297 3.28677 11.7297H10.5897C12.4701 11.7297 14 10.1171 14 8.13514V3.59459C14 1.61265 12.4701 0 10.5897 0ZM12.9231 8.13514C12.9231 9.49124 11.8763 10.5946 10.5897 10.5946H3.28749C2.7598 10.5946 2.26441 10.8111 1.89108 11.2046L1.07692 12.0627V3.59459C1.07692 2.23849 2.12369 1.13514 3.41026 1.13514H10.5897C11.8763 1.13514 12.9231 2.23849 12.9231 3.59459V8.13514ZM4.84615 5.86487C4.84615 6.2826 4.52451 6.62162 4.12821 6.62162C3.7319 6.62162 3.41026 6.2826 3.41026 5.86487C3.41026 5.44714 3.7319 5.10811 4.12821 5.10811C4.52451 5.10811 4.84615 5.44714 4.84615 5.86487ZM7.71795 5.86487C7.71795 6.2826 7.39631 6.62162 7 6.62162C6.60369 6.62162 6.28205 6.2826 6.28205 5.86487C6.28205 5.44714 6.60369 5.10811 7 5.10811C7.39631 5.10811 7.71795 5.44714 7.71795 5.86487ZM10.5897 5.86487C10.5897 6.2826 10.2681 6.62162 9.87179 6.62162C9.47549 6.62162 9.15385 6.2826 9.15385 5.86487C9.15385 5.44714 9.47549 5.10811 9.87179 5.10811C10.2681 5.10811 10.5897 5.44714 10.5897 5.86487Z" fill="#E5E5E5"/>
</svg>
