<svg width="14" height="11" viewBox="0 0 14 11" fill="none" xmlns="http://www.w3.org/2000/svg">
<path d="M13.6242 4.10618C12.6803 2.57318 10.5643 0 6.99973 0C3.43589 0 1.31912 2.57248 0.375226 4.10618C-0.125075 4.91958 -0.125075 5.92968 0.375226 6.74378C1.31984 8.27678 3.43589 10.85 6.99973 10.85C10.5643 10.85 12.6803 8.27748 13.6242 6.74378C14.1253 5.93038 14.1253 4.92028 13.6242 4.10618ZM12.7011 6.20408C11.8743 7.54738 10.0338 9.80068 6.99973 9.80068C3.96562 9.80068 2.12521 7.54738 1.29831 6.20408C1.0033 5.72388 1.0033 5.12678 1.29831 4.64728C2.12521 3.30398 3.96634 1.05068 6.99973 1.05068C10.0346 1.05068 11.875 3.30398 12.7011 4.64728C12.9969 5.12678 12.9969 5.72388 12.7011 6.20408ZM6.99973 2.45068C5.31794 2.45068 3.94911 3.78558 3.94911 5.42568C3.94911 7.06578 5.31794 8.40068 6.99973 8.40068C8.68152 8.40068 10.0503 7.06578 10.0503 5.42568C10.0503 3.78558 8.68152 2.45068 6.99973 2.45068ZM6.99973 7.35068C5.91084 7.35068 5.0258 6.48758 5.0258 5.42568C5.0258 4.36378 5.91084 3.50068 6.99973 3.50068C8.08862 3.50068 8.97366 4.36378 8.97366 5.42568C8.97366 6.48758 8.08862 7.35068 6.99973 7.35068Z" fill="#E5E5E5"/>
</svg>
