<svg width="16" height="16" viewBox="0 0 16 16" fill="none" xmlns="http://www.w3.org/2000/svg">
<path d="M13.3512 11.3951C12.6179 11.3951 11.5732 10.9969 11.8848 9.43994C12.1291 8.2179 12.8624 7.97339 13.3512 7.97339C13.803 7.97339 14.2205 8.14038 14.568 8.35095C14.7364 8.45288 14.9504 8.3324 14.943 8.13562L14.8369 5.31116C14.8264 5.03113 14.5833 4.81738 14.3042 4.84265L11.63 5.0852C11.4272 5.10364 11.2877 4.87768 11.4025 4.70947C11.6594 4.33313 11.8844 3.85412 11.8844 3.32971C11.8844 2.59643 11.4642 1.45642 9.9292 1.86316C8.72449 2.18237 8.46277 2.84094 8.46277 3.32971C8.46277 3.87292 8.70373 4.36694 8.97168 4.74866C9.09094 4.9187 8.9602 5.14941 8.75317 5.13269L5.09924 4.83996C4.80774 4.81665 4.56116 5.05273 4.57165 5.34473L4.64026 7.25012C4.64697 7.43591 4.45373 7.55762 4.2865 7.47693C3.99792 7.3374 3.67395 7.24023 3.32971 7.24023C2.59643 7.24023 1.45642 7.6604 1.86316 9.19543C2.18249 10.4001 2.84094 10.662 3.32971 10.662C3.68847 10.662 4.02576 10.5564 4.32348 10.4075C4.49023 10.324 4.68518 10.4452 4.67944 10.6315L4.56518 14.3774C4.55774 14.6274 4.73974 14.8427 4.98743 14.8767L6.75268 15.0964C6.95166 15.1237 7.099 14.9116 6.99951 14.7369C6.81018 14.4049 6.66626 14.0144 6.66626 13.5947C6.66626 12.8614 6.8905 12.1282 8.3772 12.1282C9.59924 12.1282 10.0883 12.8614 10.0883 13.5947C10.0883 14.0566 9.91369 14.4827 9.69641 14.8347C9.59326 15.0022 9.71216 15.2167 9.90893 15.2109L14.3588 15.0747C14.6167 15.0669 14.8242 14.8602 14.8328 14.6022L14.9449 11.2302C14.9514 11.0339 14.7379 10.9139 14.5699 11.0159C14.2224 11.2277 13.804 11.3951 13.3512 11.3951Z" fill="#E5E5E5"/>
</svg>
