<svg width="13" height="14" viewBox="0 0 13 14" fill="none" xmlns="http://www.w3.org/2000/svg">
<g clip-path="url(#clip0_659_1129)">
<path d="M12.6653 1.20473C12.6355 1.06794 12.4984 0.932703 12.3593 0.903336C11.5519 0.732544 10.9199 0.732544 10.2905 0.732544C7.70208 0.732544 6.14985 2.09772 4.99102 3.89799H2.37795C1.96805 3.89837 1.48641 4.19166 1.30262 4.55295L0.0630764 6.99658C0.0247703 7.07992 0.00334336 7.16983 0 7.26127C5.76364e-05 7.41869 0.0634971 7.56964 0.176371 7.68094C0.289244 7.79224 0.442312 7.85477 0.601919 7.85479H3.20485L2.64132 8.41044C2.35635 8.69141 2.31546 9.20818 2.64132 9.52948L3.91769 10.7884C4.19742 11.0651 4.72397 11.1137 5.05297 10.7884L5.61649 10.2327V12.8008C5.61655 12.9582 5.67999 13.1092 5.79286 13.2205C5.90574 13.3318 6.05881 13.3943 6.21841 13.3943C6.31114 13.3909 6.40232 13.3698 6.48688 13.3321L8.96238 12.1107C9.32919 11.9302 9.62704 11.4553 9.62704 11.0508V8.46802C11.4473 7.32271 12.8374 5.78713 12.8374 3.24766C12.8397 2.62439 12.8397 2.00112 12.6653 1.20473ZM9.62939 4.88719C9.43103 4.88714 9.23715 4.82909 9.07224 4.72036C8.90734 4.61164 8.77882 4.45713 8.70295 4.27637C8.62708 4.09562 8.60725 3.89673 8.64598 3.70486C8.6847 3.51299 8.78024 3.33675 8.92052 3.19843C9.06079 3.06011 9.2395 2.96593 9.43405 2.92778C9.6286 2.88963 9.83025 2.90923 10.0135 2.98411C10.1968 3.05898 10.3534 3.18577 10.4636 3.34844C10.5738 3.51111 10.6326 3.70235 10.6326 3.89799C10.6324 4.16033 10.5267 4.41189 10.3386 4.59737C10.1505 4.78286 9.89538 4.8871 9.62939 4.88719Z" fill="#E5E5E5"/>
</g>
<defs>
<clipPath id="clip0_659_1129">
<rect width="12.8378" height="12.6618" fill="white" transform="translate(0 0.732544)"/>
</clipPath>
</defs>
</svg>
