<svg width="14" height="13" viewBox="0 0 14 13" fill="none" xmlns="http://www.w3.org/2000/svg">
<path d="M4.46562 3.17987C4.25526 2.96223 4.25526 2.60936 4.46562 2.39171L6.61947 0.163236C6.82983 -0.0544119 7.17088 -0.0544119 7.38124 0.163236L9.53508 2.39171C9.74544 2.60936 9.74544 2.96223 9.53508 3.17987C9.43026 3.28833 9.29239 3.34327 9.15455 3.34327C9.0167 3.34327 8.87888 3.28907 8.77406 3.17987L7.53916 1.90224V5.75746C7.53916 6.06499 7.29793 6.31458 7.0007 6.31458C6.70347 6.31458 6.46224 6.06499 6.46224 5.75746V1.90296L5.22739 3.1806C5.01631 3.3975 4.67598 3.39752 4.46562 3.17987ZM10.5897 5.20034C10.2925 5.20034 10.0513 5.44993 10.0513 5.75746C10.0513 6.06499 10.2925 6.31458 10.5897 6.31458C11.8763 6.31458 12.9231 7.39761 12.9231 8.72876V9.47158C12.9231 10.8027 11.8763 11.8858 10.5897 11.8858H3.41026C2.12369 11.8858 1.07692 10.8027 1.07692 9.47158V8.72876C1.07692 7.39761 2.12369 6.31458 3.41026 6.31458C3.70749 6.31458 3.94872 6.06499 3.94872 5.75746C3.94872 5.44993 3.70749 5.20034 3.41026 5.20034C1.52995 5.20034 0 6.7833 0 8.72876V9.47158C0 11.417 1.52995 13 3.41026 13H10.5897C12.4701 13 14 11.417 14 9.47158V8.72876C14 6.7833 12.4701 5.20034 10.5897 5.20034ZM11.3077 8.72876C11.3077 8.31872 10.9861 7.98593 10.5897 7.98593C10.1934 7.98593 9.87179 8.31872 9.87179 8.72876C9.87179 9.1388 10.1934 9.47158 10.5897 9.47158C10.9861 9.47158 11.3077 9.1388 11.3077 8.72876Z" fill="#E5E5E5"/>
</svg>
