<svg width="14" height="12" viewBox="0 0 14 12" fill="none" xmlns="http://www.w3.org/2000/svg">
<path d="M3.03789 7.08055C3.4043 7.40594 3.95937 7.40594 4.29844 7.08055L5.6875 5.76074L7.25648 7.25444C7.42656 7.41635 7.65078 7.49705 7.875 7.49705C8.09922 7.49705 8.32289 7.4157 8.49352 7.25301L12.688 3.25975C13.0296 2.93462 13.0296 2.40721 12.6881 2.08182C12.3463 1.75642 11.7923 1.75642 11.4508 2.08177L7.875 5.48741L6.30547 3.99319C5.96367 3.6678 5.40996 3.6678 5.06816 3.99319L3.03789 5.90391C2.7207 6.22671 2.7207 6.75515 3.03789 7.08055ZM13.125 9.99609H1.75V0.809523C1.75 0.372972 1.35816 -6.10352e-05 0.875 -6.10352e-05C0.391836 -6.10352e-05 0 0.372972 0 0.809523V10.8291C0 11.2873 0.39375 11.6621 0.875 11.6621H13.125C13.609 11.6621 14 11.2899 14 10.8291C14 10.3683 13.609 9.99609 13.125 9.99609Z" fill="#E5E5E5"/>
</svg>
