<svg width="359" height="128" viewBox="0 0 359 128" fill="none" xmlns="http://www.w3.org/2000/svg">
<path d="M3.86719 116.797H5.0625C6.35938 116.797 7.26953 116.328 7.79297 115.391C8.32422 114.453 8.58984 112.793 8.58984 110.41C8.58984 108.035 8.32812 106.383 7.80469 105.453C7.28125 104.516 6.36719 104.047 5.0625 104.047H3.86719V116.797ZM1.53516 119V101.891H4.58203C6.91016 101.891 8.54688 102.531 9.49219 103.812C10.4453 105.086 10.9219 107.293 10.9219 110.434C10.9219 113.582 10.4453 115.797 9.49219 117.078C8.54688 118.359 6.91016 119 4.58203 119H1.53516ZM13.2305 119V107.504H15.2695V109.18C15.5586 108.57 15.9297 108.113 16.3828 107.809C16.8359 107.496 17.3906 107.324 18.0469 107.293V109.52H17.6953C16.875 109.52 16.2734 109.727 15.8906 110.141C15.5078 110.547 15.3164 111.188 15.3164 112.062V119H13.2305ZM24.4688 119V117.875C24.1797 118.336 23.8477 118.676 23.4727 118.895C23.1055 119.105 22.6797 119.211 22.1953 119.211C21.2266 119.211 20.4922 118.707 19.9922 117.699C19.4922 116.691 19.2422 115.203 19.2422 113.234C19.2422 111.281 19.4883 109.805 19.9805 108.805C20.4805 107.797 21.2188 107.293 22.1953 107.293C22.6875 107.293 23.1172 107.398 23.4844 107.609C23.8594 107.82 24.1875 108.152 24.4688 108.605V107.504H26.5781V119H24.4688ZM21.375 113.234C21.375 114.703 21.4961 115.738 21.7383 116.34C21.9883 116.941 22.3945 117.242 22.957 117.242C23.5195 117.242 23.9219 116.941 24.1641 116.34C24.4141 115.73 24.5391 114.695 24.5391 113.234C24.5391 111.766 24.418 110.738 24.1758 110.152C23.9336 109.559 23.5273 109.262 22.957 109.262C22.3867 109.262 21.9805 109.559 21.7383 110.152C21.4961 110.738 21.375 111.766 21.375 113.234ZM30.7734 113.234C30.7734 114.711 30.8945 115.746 31.1367 116.34C31.3789 116.926 31.7852 117.219 32.3555 117.219C32.9258 117.219 33.332 116.926 33.5742 116.34C33.8164 115.746 33.9375 114.711 33.9375 113.234C33.9375 111.766 33.8164 110.738 33.5742 110.152C33.332 109.559 32.9258 109.262 32.3555 109.262C31.7852 109.262 31.3789 109.559 31.1367 110.152C30.8945 110.738 30.7734 111.766 30.7734 113.234ZM35.9766 119.27C35.9766 120.855 35.6836 121.977 35.0977 122.633C34.5195 123.297 33.5508 123.629 32.1914 123.629C31.0742 123.629 30.2188 123.344 29.625 122.773C29.0312 122.211 28.7344 121.402 28.7344 120.348V119.984H30.7383C30.7617 120.609 30.8906 121.074 31.125 121.379C31.3672 121.684 31.7305 121.836 32.2148 121.836C32.8008 121.836 33.2227 121.652 33.4805 121.285C33.7383 120.918 33.8672 120.316 33.8672 119.48V117.852C33.5781 118.305 33.2461 118.641 32.8711 118.859C32.5039 119.078 32.0781 119.188 31.5938 119.188C30.5781 119.188 29.832 118.707 29.3555 117.746C28.8789 116.777 28.6406 115.273 28.6406 113.234C28.6406 111.203 28.8789 109.707 29.3555 108.746C29.832 107.777 30.5781 107.293 31.5938 107.293C32.0859 107.293 32.5156 107.398 32.8828 107.609C33.2578 107.82 33.5859 108.152 33.8672 108.605V107.504H35.9766V119.27ZM47.9062 119V117.875C47.6172 118.336 47.2852 118.676 46.9102 118.895C46.543 119.105 46.1172 119.211 45.6328 119.211C44.6641 119.211 43.9297 118.707 43.4297 117.699C42.9297 116.691 42.6797 115.203 42.6797 113.234C42.6797 111.281 42.9258 109.805 43.418 108.805C43.918 107.797 44.6562 107.293 45.6328 107.293C46.125 107.293 46.5547 107.398 46.9219 107.609C47.2969 107.82 47.625 108.152 47.9062 108.605V107.504H50.0156V119H47.9062ZM44.8125 113.234C44.8125 114.703 44.9336 115.738 45.1758 116.34C45.4258 116.941 45.832 117.242 46.3945 117.242C46.957 117.242 47.3594 116.941 47.6016 116.34C47.8516 115.73 47.9766 114.695 47.9766 113.234C47.9766 111.766 47.8555 110.738 47.6133 110.152C47.3711 109.559 46.9648 109.262 46.3945 109.262C45.8242 109.262 45.418 109.559 45.1758 110.152C44.9336 110.738 44.8125 111.766 44.8125 113.234ZM52.5586 119V107.504H54.6445V108.652C54.9258 108.23 55.2656 107.914 55.6641 107.703C56.0703 107.492 56.5391 107.387 57.0703 107.387C57.9141 107.387 58.5391 107.621 58.9453 108.09C59.3594 108.559 59.5664 109.273 59.5664 110.234V119H57.4453V111.277C57.4453 110.496 57.3438 109.965 57.1406 109.684C56.9375 109.402 56.5859 109.262 56.0859 109.262C55.6172 109.262 55.2617 109.41 55.0195 109.707C54.7852 109.996 54.668 110.43 54.668 111.008V119H52.5586ZM63.7969 113.27C63.7969 114.738 63.918 115.77 64.1602 116.363C64.4023 116.949 64.8086 117.242 65.3789 117.242C65.9492 117.242 66.3555 116.949 66.5977 116.363C66.8398 115.77 66.9609 114.738 66.9609 113.27C66.9609 111.793 66.8398 110.762 66.5977 110.176C66.3555 109.582 65.9492 109.285 65.3789 109.285C64.8086 109.285 64.4023 109.582 64.1602 110.176C63.918 110.762 63.7969 111.793 63.7969 113.27ZM66.8906 119V117.875C66.6016 118.336 66.2695 118.676 65.8945 118.895C65.5273 119.105 65.1016 119.211 64.6172 119.211C63.6016 119.211 62.8555 118.73 62.3789 117.77C61.9023 116.801 61.6641 115.301 61.6641 113.27C61.6641 111.23 61.9023 109.73 62.3789 108.77C62.8555 107.801 63.6016 107.316 64.6172 107.316C65.1094 107.316 65.5391 107.422 65.9062 107.633C66.2812 107.844 66.6094 108.176 66.8906 108.629V100.836H69V119H66.8906ZM77.8359 113.27C77.8359 114.738 77.957 115.77 78.1992 116.363C78.4414 116.949 78.8477 117.242 79.418 117.242C79.9883 117.242 80.3945 116.949 80.6367 116.363C80.8789 115.77 81 114.738 81 113.27C81 111.793 80.8789 110.762 80.6367 110.176C80.3945 109.582 79.9883 109.285 79.418 109.285C78.8477 109.285 78.4414 109.582 78.1992 110.176C77.957 110.762 77.8359 111.793 77.8359 113.27ZM80.9297 119V117.875C80.6406 118.336 80.3086 118.676 79.9336 118.895C79.5664 119.105 79.1406 119.211 78.6562 119.211C77.6406 119.211 76.8945 118.73 76.418 117.77C75.9414 116.801 75.7031 115.301 75.7031 113.27C75.7031 111.23 75.9414 109.73 76.418 108.77C76.8945 107.801 77.6406 107.316 78.6562 107.316C79.1484 107.316 79.5781 107.422 79.9453 107.633C80.3203 107.844 80.6484 108.176 80.9297 108.629V100.836H83.0391V119H80.9297ZM85.6055 119V107.504H87.6445V109.18C87.9336 108.57 88.3047 108.113 88.7578 107.809C89.2109 107.496 89.7656 107.324 90.4219 107.293V109.52H90.0703C89.25 109.52 88.6484 109.727 88.2656 110.141C87.8828 110.547 87.6914 111.188 87.6914 112.062V119H85.6055ZM93.6328 113.211C93.6328 114.617 93.7695 115.648 94.043 116.305C94.3242 116.953 94.7617 117.277 95.3555 117.277C95.957 117.277 96.3984 116.949 96.6797 116.293C96.9688 115.637 97.1133 114.609 97.1133 113.211C97.1133 111.82 96.9688 110.797 96.6797 110.141C96.3984 109.484 95.957 109.156 95.3555 109.156C94.7617 109.156 94.3242 109.484 94.043 110.141C93.7695 110.789 93.6328 111.812 93.6328 113.211ZM91.4883 113.234C91.4883 111.297 91.8164 109.824 92.4727 108.816C93.1367 107.801 94.0977 107.293 95.3555 107.293C96.6133 107.293 97.5703 107.801 98.2266 108.816C98.8906 109.824 99.2227 111.297 99.2227 113.234C99.2227 115.188 98.8906 116.672 98.2266 117.688C97.5703 118.703 96.6133 119.211 95.3555 119.211C94.0977 119.211 93.1367 118.703 92.4727 117.688C91.8164 116.672 91.4883 115.188 91.4883 113.234ZM103.195 113.234C103.195 114.711 103.316 115.746 103.559 116.34C103.809 116.926 104.219 117.219 104.789 117.219C105.359 117.219 105.766 116.926 106.008 116.34C106.25 115.746 106.371 114.711 106.371 113.234C106.371 111.766 106.25 110.738 106.008 110.152C105.766 109.559 105.359 109.262 104.789 109.262C104.219 109.262 103.809 109.559 103.559 110.152C103.316 110.738 103.195 111.766 103.195 113.234ZM101.156 123.629V107.504H103.277V108.605C103.559 108.152 103.883 107.82 104.25 107.609C104.625 107.398 105.059 107.293 105.551 107.293C106.559 107.293 107.301 107.777 107.777 108.746C108.262 109.707 108.504 111.203 108.504 113.234C108.504 115.273 108.262 116.777 107.777 117.746C107.301 118.707 106.559 119.188 105.551 119.188C105.066 119.188 104.637 119.078 104.262 118.859C103.895 118.641 103.566 118.305 103.277 117.852V123.629H101.156ZM120.07 119V117.875C119.781 118.336 119.449 118.676 119.074 118.895C118.707 119.105 118.281 119.211 117.797 119.211C116.828 119.211 116.094 118.707 115.594 117.699C115.094 116.691 114.844 115.203 114.844 113.234C114.844 111.281 115.09 109.805 115.582 108.805C116.082 107.797 116.82 107.293 117.797 107.293C118.289 107.293 118.719 107.398 119.086 107.609C119.461 107.82 119.789 108.152 120.07 108.605V107.504H122.18V119H120.07ZM116.977 113.234C116.977 114.703 117.098 115.738 117.34 116.34C117.59 116.941 117.996 117.242 118.559 117.242C119.121 117.242 119.523 116.941 119.766 116.34C120.016 115.73 120.141 114.695 120.141 113.234C120.141 111.766 120.02 110.738 119.777 110.152C119.535 109.559 119.129 109.262 118.559 109.262C117.988 109.262 117.582 109.559 117.34 110.152C117.098 110.738 116.977 111.766 116.977 113.234ZM129.504 119V109.133H128.355V107.504H129.504V103.473C129.504 102.582 129.723 101.879 130.16 101.363C130.605 100.848 131.211 100.59 131.977 100.59C132.156 100.59 132.359 100.613 132.586 100.66C132.812 100.699 133.066 100.766 133.348 100.859V102.781C133.191 102.727 133.047 102.688 132.914 102.664C132.781 102.641 132.66 102.629 132.551 102.629C132.23 102.629 131.996 102.723 131.848 102.91C131.707 103.09 131.637 103.383 131.637 103.789V107.504H133.219V109.133H131.637V119H129.504ZM134.32 104.07C134.32 103.688 134.449 103.363 134.707 103.098C134.965 102.832 135.285 102.699 135.668 102.699C136.043 102.699 136.359 102.832 136.617 103.098C136.875 103.363 137.004 103.688 137.004 104.07C137.004 104.445 136.871 104.766 136.605 105.031C136.348 105.289 136.035 105.418 135.668 105.418C135.285 105.418 134.965 105.289 134.707 105.031C134.449 104.773 134.32 104.453 134.32 104.07ZM134.613 119V107.504H136.723V119H134.613ZM139.418 119V100.836H141.527V119H139.418ZM145.582 111.992H148.805V111.699C148.805 110.754 148.68 110.07 148.43 109.648C148.18 109.227 147.777 109.016 147.223 109.016C146.684 109.016 146.273 109.27 145.992 109.777C145.719 110.277 145.582 111.016 145.582 111.992ZM150.727 115.156V115.309C150.727 116.52 150.422 117.473 149.812 118.168C149.203 118.863 148.371 119.211 147.316 119.211C146.027 119.211 145.082 118.734 144.48 117.781C143.887 116.82 143.59 115.289 143.59 113.188C143.59 111.211 143.887 109.734 144.48 108.758C145.082 107.781 145.988 107.293 147.199 107.293C148.488 107.293 149.418 107.738 149.988 108.629C150.559 109.512 150.844 110.961 150.844 112.977V113.645H145.582V113.984C145.582 115.188 145.719 116.062 145.992 116.609C146.266 117.148 146.699 117.418 147.293 117.418C147.77 117.418 148.129 117.23 148.371 116.855C148.621 116.48 148.758 115.918 148.781 115.168L150.727 115.156ZM159.07 113.211C159.07 114.617 159.207 115.648 159.48 116.305C159.762 116.953 160.199 117.277 160.793 117.277C161.395 117.277 161.836 116.949 162.117 116.293C162.406 115.637 162.551 114.609 162.551 113.211C162.551 111.82 162.406 110.797 162.117 110.141C161.836 109.484 161.395 109.156 160.793 109.156C160.199 109.156 159.762 109.484 159.48 110.141C159.207 110.789 159.07 111.812 159.07 113.211ZM156.926 113.234C156.926 111.297 157.254 109.824 157.91 108.816C158.574 107.801 159.535 107.293 160.793 107.293C162.051 107.293 163.008 107.801 163.664 108.816C164.328 109.824 164.66 111.297 164.66 113.234C164.66 115.188 164.328 116.672 163.664 117.688C163.008 118.703 162.051 119.211 160.793 119.211C159.535 119.211 158.574 118.703 157.91 117.688C157.254 116.672 156.926 115.188 156.926 113.234ZM166.746 119V107.504H168.785V109.18C169.074 108.57 169.445 108.113 169.898 107.809C170.352 107.496 170.906 107.324 171.562 107.293V109.52H171.211C170.391 109.52 169.789 109.727 169.406 110.141C169.023 110.547 168.832 111.188 168.832 112.062V119H166.746ZM182.367 118.812C182.07 118.953 181.781 119.059 181.5 119.129C181.219 119.199 180.93 119.234 180.633 119.234C179.477 119.234 178.621 118.754 178.066 117.793C177.52 116.824 177.246 115.316 177.246 113.27C177.246 111.309 177.523 109.824 178.078 108.816C178.633 107.801 179.445 107.293 180.516 107.293C180.844 107.293 181.16 107.332 181.465 107.41C181.77 107.48 182.07 107.59 182.367 107.738V109.766C182.172 109.578 181.98 109.441 181.793 109.355C181.605 109.27 181.41 109.227 181.207 109.227C180.598 109.227 180.141 109.57 179.836 110.258C179.539 110.945 179.391 111.98 179.391 113.363C179.391 114.637 179.535 115.586 179.824 116.211C180.121 116.836 180.566 117.148 181.16 117.148C181.371 117.148 181.574 117.109 181.77 117.031C181.973 116.945 182.172 116.816 182.367 116.645V118.812ZM184.02 119V100.836H186.129V119H184.02ZM188.531 104.07C188.531 103.688 188.66 103.363 188.918 103.098C189.176 102.832 189.496 102.699 189.879 102.699C190.254 102.699 190.57 102.832 190.828 103.098C191.086 103.363 191.215 103.688 191.215 104.07C191.215 104.445 191.082 104.766 190.816 105.031C190.559 105.289 190.246 105.418 189.879 105.418C189.496 105.418 189.176 105.289 188.918 105.031C188.66 104.773 188.531 104.453 188.531 104.07ZM188.824 119V107.504H190.934V119H188.824ZM198.094 118.812C197.797 118.953 197.508 119.059 197.227 119.129C196.945 119.199 196.656 119.234 196.359 119.234C195.203 119.234 194.348 118.754 193.793 117.793C193.246 116.824 192.973 115.316 192.973 113.27C192.973 111.309 193.25 109.824 193.805 108.816C194.359 107.801 195.172 107.293 196.242 107.293C196.57 107.293 196.887 107.332 197.191 107.41C197.496 107.48 197.797 107.59 198.094 107.738V109.766C197.898 109.578 197.707 109.441 197.52 109.355C197.332 109.27 197.137 109.227 196.934 109.227C196.324 109.227 195.867 109.57 195.562 110.258C195.266 110.945 195.117 111.98 195.117 113.363C195.117 114.637 195.262 115.586 195.551 116.211C195.848 116.836 196.293 117.148 196.887 117.148C197.098 117.148 197.301 117.109 197.496 117.031C197.699 116.945 197.898 116.816 198.094 116.645V118.812ZM199.793 119V100.836H201.902V112.613L204.949 107.504H207.211L204.035 112.789L207.352 119H205.066L201.902 112.953V119H199.793ZM213.551 119V100.836H215.66V108.652C215.902 108.238 216.223 107.926 216.621 107.715C217.027 107.496 217.508 107.387 218.062 107.387C218.906 107.387 219.531 107.621 219.938 108.09C220.352 108.559 220.559 109.273 220.559 110.234V119H218.438V111.277C218.438 110.496 218.336 109.965 218.133 109.684C217.93 109.402 217.578 109.262 217.078 109.262C216.609 109.262 216.254 109.41 216.012 109.707C215.777 109.996 215.66 110.43 215.66 111.008V119H213.551ZM224.52 111.992H227.742V111.699C227.742 110.754 227.617 110.07 227.367 109.648C227.117 109.227 226.715 109.016 226.16 109.016C225.621 109.016 225.211 109.27 224.93 109.777C224.656 110.277 224.52 111.016 224.52 111.992ZM229.664 115.156V115.309C229.664 116.52 229.359 117.473 228.75 118.168C228.141 118.863 227.309 119.211 226.254 119.211C224.965 119.211 224.02 118.734 223.418 117.781C222.824 116.82 222.527 115.289 222.527 113.188C222.527 111.211 222.824 109.734 223.418 108.758C224.02 107.781 224.926 107.293 226.137 107.293C227.426 107.293 228.355 107.738 228.926 108.629C229.496 109.512 229.781 110.961 229.781 112.977V113.645H224.52V113.984C224.52 115.188 224.656 116.062 224.93 116.609C225.203 117.148 225.637 117.418 226.23 117.418C226.707 117.418 227.066 117.23 227.309 116.855C227.559 116.48 227.695 115.918 227.719 115.168L229.664 115.156ZM231.855 119V107.504H233.895V109.18C234.184 108.57 234.555 108.113 235.008 107.809C235.461 107.496 236.016 107.324 236.672 107.293V109.52H236.32C235.5 109.52 234.898 109.727 234.516 110.141C234.133 110.547 233.941 111.188 233.941 112.062V119H231.855ZM239.73 111.992H242.953V111.699C242.953 110.754 242.828 110.07 242.578 109.648C242.328 109.227 241.926 109.016 241.371 109.016C240.832 109.016 240.422 109.27 240.141 109.777C239.867 110.277 239.73 111.016 239.73 111.992ZM244.875 115.156V115.309C244.875 116.52 244.57 117.473 243.961 118.168C243.352 118.863 242.52 119.211 241.465 119.211C240.176 119.211 239.23 118.734 238.629 117.781C238.035 116.82 237.738 115.289 237.738 113.188C237.738 111.211 238.035 109.734 238.629 108.758C239.23 107.781 240.137 107.293 241.348 107.293C242.637 107.293 243.566 107.738 244.137 108.629C244.707 109.512 244.992 110.961 244.992 112.977V113.645H239.73V113.984C239.73 115.188 239.867 116.062 240.141 116.609C240.414 117.148 240.848 117.418 241.441 117.418C241.918 117.418 242.277 117.23 242.52 116.855C242.77 116.48 242.906 115.918 242.93 115.168L244.875 115.156ZM251.801 119V109.062H250.652V107.504H251.801V104.387H253.91V107.504H255.492V109.062H253.91V119H251.801ZM258.492 113.211C258.492 114.617 258.629 115.648 258.902 116.305C259.184 116.953 259.621 117.277 260.215 117.277C260.816 117.277 261.258 116.949 261.539 116.293C261.828 115.637 261.973 114.609 261.973 113.211C261.973 111.82 261.828 110.797 261.539 110.141C261.258 109.484 260.816 109.156 260.215 109.156C259.621 109.156 259.184 109.484 258.902 110.141C258.629 110.789 258.492 111.812 258.492 113.211ZM256.348 113.234C256.348 111.297 256.676 109.824 257.332 108.816C257.996 107.801 258.957 107.293 260.215 107.293C261.473 107.293 262.43 107.801 263.086 108.816C263.75 109.824 264.082 111.297 264.082 113.234C264.082 115.188 263.75 116.672 263.086 117.688C262.43 118.703 261.473 119.211 260.215 119.211C258.957 119.211 257.996 118.703 257.332 117.688C256.676 116.672 256.348 115.188 256.348 113.234ZM270.738 115.613V107.504H272.848V115.73C272.848 116.262 272.965 116.664 273.199 116.938C273.434 117.211 273.781 117.348 274.242 117.348C274.695 117.348 275.039 117.211 275.273 116.938C275.508 116.664 275.625 116.262 275.625 115.73V107.504H277.77V115.613C277.77 116.879 277.488 117.797 276.926 118.367C276.371 118.93 275.477 119.211 274.242 119.211C273.008 119.211 272.113 118.93 271.559 118.367C271.012 117.797 270.738 116.879 270.738 115.613ZM282.281 113.234C282.281 114.711 282.402 115.746 282.645 116.34C282.895 116.926 283.305 117.219 283.875 117.219C284.445 117.219 284.852 116.926 285.094 116.34C285.336 115.746 285.457 114.711 285.457 113.234C285.457 111.766 285.336 110.738 285.094 110.152C284.852 109.559 284.445 109.262 283.875 109.262C283.305 109.262 282.895 109.559 282.645 110.152C282.402 110.738 282.281 111.766 282.281 113.234ZM280.242 123.629V107.504H282.363V108.605C282.645 108.152 282.969 107.82 283.336 107.609C283.711 107.398 284.145 107.293 284.637 107.293C285.645 107.293 286.387 107.777 286.863 108.746C287.348 109.707 287.59 111.203 287.59 113.234C287.59 115.273 287.348 116.777 286.863 117.746C286.387 118.707 285.645 119.188 284.637 119.188C284.152 119.188 283.723 119.078 283.348 118.859C282.98 118.641 282.652 118.305 282.363 117.852V123.629H280.242ZM289.793 119V100.836H291.902V119H289.793ZM296.109 113.211C296.109 114.617 296.246 115.648 296.52 116.305C296.801 116.953 297.238 117.277 297.832 117.277C298.434 117.277 298.875 116.949 299.156 116.293C299.445 115.637 299.59 114.609 299.59 113.211C299.59 111.82 299.445 110.797 299.156 110.141C298.875 109.484 298.434 109.156 297.832 109.156C297.238 109.156 296.801 109.484 296.52 110.141C296.246 110.789 296.109 111.812 296.109 113.211ZM293.965 113.234C293.965 111.297 294.293 109.824 294.949 108.816C295.613 107.801 296.574 107.293 297.832 107.293C299.09 107.293 300.047 107.801 300.703 108.816C301.367 109.824 301.699 111.297 301.699 113.234C301.699 115.188 301.367 116.672 300.703 117.688C300.047 118.703 299.09 119.211 297.832 119.211C296.574 119.211 295.613 118.703 294.949 117.688C294.293 116.672 293.965 115.188 293.965 113.234ZM308.508 119V117.875C308.219 118.336 307.887 118.676 307.512 118.895C307.145 119.105 306.719 119.211 306.234 119.211C305.266 119.211 304.531 118.707 304.031 117.699C303.531 116.691 303.281 115.203 303.281 113.234C303.281 111.281 303.527 109.805 304.02 108.805C304.52 107.797 305.258 107.293 306.234 107.293C306.727 107.293 307.156 107.398 307.523 107.609C307.898 107.82 308.227 108.152 308.508 108.605V107.504H310.617V119H308.508ZM305.414 113.234C305.414 114.703 305.535 115.738 305.777 116.34C306.027 116.941 306.434 117.242 306.996 117.242C307.559 117.242 307.961 116.941 308.203 116.34C308.453 115.73 308.578 114.695 308.578 113.234C308.578 111.766 308.457 110.738 308.215 110.152C307.973 109.559 307.566 109.262 306.996 109.262C306.426 109.262 306.02 109.559 305.777 110.152C305.535 110.738 305.414 111.766 305.414 113.234ZM314.812 113.27C314.812 114.738 314.934 115.77 315.176 116.363C315.418 116.949 315.824 117.242 316.395 117.242C316.965 117.242 317.371 116.949 317.613 116.363C317.855 115.77 317.977 114.738 317.977 113.27C317.977 111.793 317.855 110.762 317.613 110.176C317.371 109.582 316.965 109.285 316.395 109.285C315.824 109.285 315.418 109.582 315.176 110.176C314.934 110.762 314.812 111.793 314.812 113.27ZM317.906 119V117.875C317.617 118.336 317.285 118.676 316.91 118.895C316.543 119.105 316.117 119.211 315.633 119.211C314.617 119.211 313.871 118.73 313.395 117.77C312.918 116.801 312.68 115.301 312.68 113.27C312.68 111.23 312.918 109.73 313.395 108.77C313.871 107.801 314.617 107.316 315.633 107.316C316.125 107.316 316.555 107.422 316.922 107.633C317.297 107.844 317.625 108.176 317.906 108.629V100.836H320.016V119H317.906Z" fill="black"/>
<path d="M196.803 21.75L180.25 2.54936C178.832 0.905059 176.95 0 174.947 0H157.75C147.411 0 139 9.75705 139 21.75V65.25C139 77.2429 147.411 87 157.75 87H180.25C190.589 87 199 77.2429 199 65.25V27.9006C199 25.6125 198.201 23.3682 196.803 21.75ZM180.25 14.8506L186.197 21.75H185.875C182.774 21.75 180.25 18.8225 180.25 15.225V14.8506ZM180.25 78.3H157.75C151.547 78.3 146.5 72.4449 146.5 65.25V21.75C146.5 14.5551 151.547 8.7 157.75 8.7H172.75V15.225C172.75 23.6205 178.637 30.45 185.875 30.45H191.5V65.25C191.5 72.4449 186.453 78.3 180.25 78.3Z" fill="#4C4C4C"/>
</svg>
